<svg width="76" height="38" viewBox="0 0 76 38" fill="none" xmlns="http://www.w3.org/2000/svg">
<path d="M73.4306 28.8423C73.5039 28.8423 73.5772 28.8444 73.7114 28.8673C74.2709 29.1747 74.3638 29.3959 74.1419 29.8789C73.9633 30.2663 73.7609 30.6443 73.5565 31.0193C73.093 31.873 72.6223 32.7236 72.1556 33.5753C72.1556 33.5753 72.166 33.5919 72.1329 33.5981C71.2627 34.4986 70.4255 35.3918 69.5882 36.285C69.5882 36.285 69.5986 36.2912 69.5593 36.2912C68.6209 36.824 67.6877 37.2187 66.6079 37.0307C66.6079 37.0307 66.6058 37.0224 66.5872 36.9985C66.515 36.9632 66.4592 36.9528 66.4045 36.9424C66.3601 36.93 66.3157 36.9175 66.2177 36.8749C65.5518 36.5218 65.2524 35.9464 64.9758 35.3544C64.9696 35.3087 64.9623 35.264 64.951 35.1425C64.9458 34.4757 64.9458 33.8848 64.9458 33.1557C64.2521 34.0811 63.6637 34.8673 63.0742 35.6535C63.0742 35.6535 63.0938 35.6608 63.0515 35.665C62.1007 36.5447 61.0312 37.1034 59.7903 37.3267C59.7129 37.3298 59.6345 37.333 59.4858 37.3381C59.3702 37.3465 59.3258 37.3517 59.2814 37.3568C59.235 37.3465 59.1895 37.3361 59.077 37.3049C57.2828 37.1149 56.3847 36.0534 56.0089 34.4425C55.9418 34.1527 55.9232 33.8526 55.8664 33.4486C55.5216 33.9128 55.2501 34.2846 54.9724 34.6523C54.3148 35.5268 53.5747 36.3162 52.5496 36.7493C51.9869 36.9871 51.3923 37.147 50.8121 37.3423C50.7017 37.335 50.5912 37.3288 50.3992 37.3195C49.6384 37.1294 48.9302 37.011 48.287 36.7358C47.5025 36.4003 47.0782 35.667 46.7055 34.9244C46.7055 34.9244 46.7096 34.9369 46.7055 34.8881C46.6301 34.2961 46.499 33.7529 46.499 33.2097C46.499 32.1866 46.8449 31.2477 47.3518 30.368C47.6862 29.7875 48.0166 29.2038 48.3479 28.6211C48.3479 28.6211 48.3387 28.6118 48.3727 28.6024C48.7702 28.0509 49.149 27.5181 49.4918 26.9635C49.8056 26.4556 50.0513 25.8906 49.6735 25.3287C49.3029 24.7762 48.8652 24.2652 48.4212 23.7687C48.158 23.4748 47.9071 23.5506 47.7833 23.938C47.4674 24.933 47.1701 25.9332 46.8666 26.9323C46.8666 26.9323 46.8738 26.9438 46.8428 26.9593C45.7919 29.5288 44.6212 32.0039 42.9695 34.2171C42.06 35.4365 40.9998 36.499 39.4926 36.93C37.9482 37.3703 36.7301 36.7731 36.3708 35.2194C36.2283 34.6035 36.2665 33.9461 36.217 33.2305C36.0054 33.5431 35.8226 33.8069 35.6471 34.0748C34.46 35.8841 32.9507 37.199 30.6847 37.3548C30.6083 37.3413 30.5309 37.3278 30.3843 37.2945C28.1028 36.9933 27.4545 35.4074 27.2429 33.4402C25.969 35.0802 24.819 36.7586 22.7306 37.3309C22.6841 37.3309 22.6377 37.3309 22.5107 37.335C21.8768 37.2706 21.3245 37.2011 20.7712 37.1325C20.7712 37.1325 20.7475 37.1076 20.7082 37.0816C20.4656 36.8479 20.189 36.6755 20.0733 36.4273C19.8524 35.9537 19.7224 35.4375 19.5551 34.939C19.5592 34.8953 19.5623 34.8528 19.5799 34.7437C19.7729 33.8328 19.9526 32.9874 20.1312 32.143C20.1435 32.0994 20.1549 32.0558 20.2014 31.954C20.7206 30.1988 21.211 28.5027 21.691 26.8035C21.8717 26.1638 22.0286 25.5167 22.1969 24.8738C22.2082 24.8302 22.2196 24.7855 22.2588 24.6806C22.4302 24.1281 22.5644 23.6337 22.7182 23.1456C22.9814 22.3064 23.4563 22.1319 24.724 22.3936C25.3971 22.5328 25.4694 22.6647 25.395 23.6129C25.395 23.6129 25.4043 23.6192 25.3785 23.6244C25.3465 23.6628 25.3403 23.696 25.3341 23.7293C25.3217 23.8051 25.3083 23.8809 25.265 24.0221C24.9057 25.2394 24.5743 26.3902 24.2502 27.543C24.0736 28.1683 23.9085 28.7977 23.7381 29.425C23.7381 29.425 23.7464 29.4416 23.7185 29.4499C23.6875 29.5216 23.6855 29.5849 23.6824 29.6483C23.669 29.6919 23.6545 29.7355 23.6112 29.8384C23.2695 31.0276 22.9587 32.1576 22.647 33.2865C22.6366 33.3312 22.6263 33.3769 22.5912 33.4901C22.5509 33.7965 22.5365 34.0364 22.5189 34.2743C22.4911 34.6378 22.5561 34.9556 22.9019 35.1571C23.2684 35.37 23.6204 35.2661 23.9002 35.0314C24.3957 34.617 24.8489 34.1507 25.3186 33.7061C25.3186 33.7061 25.3124 33.7009 25.3403 33.6968C25.3868 33.6615 25.4054 33.6314 25.4239 33.6012C25.4239 33.6012 25.4167 33.5971 25.4518 33.5888C26.3799 32.4006 27.2584 31.2187 27.79 29.8103C28.7222 27.3405 30.152 25.2228 32.3292 23.6929C33.6465 22.7665 35.068 22.0529 36.7363 22.0706C37.5394 22.0789 38.3415 22.1277 39.1447 22.1578C39.188 22.1693 39.2314 22.1817 39.3367 22.2233C40.4681 22.4372 41.4292 22.8662 42.2758 23.5506C42.7558 23.938 42.825 24.4687 42.4616 24.9527C42.0032 25.5624 41.6068 25.6341 41.0215 25.2695C39.5514 24.3535 37.9843 23.7822 36.2387 24.2631C34.7005 24.6869 33.503 25.6237 32.5212 26.8949C31.0027 28.861 30.1985 31.0473 30.2707 33.5462C30.3007 34.5858 31.0502 35.3149 31.9916 35.129C32.4097 35.047 32.8433 34.8247 33.1757 34.5495C34.78 33.2242 35.801 31.4555 36.6557 29.6005C37.1647 28.4975 37.5012 27.3145 37.91 26.1658C38.1093 25.606 38.5821 25.3183 39.156 25.4679C39.4668 25.5489 39.7662 25.685 40.0604 25.82C40.4423 25.9955 40.559 26.2801 40.4434 26.7059C40.081 28.0301 39.7032 29.3533 39.4141 30.6942C39.1622 31.8647 39.0146 33.0591 38.8381 34.2452C38.7782 34.6482 39.0311 34.8995 39.3894 34.9182C39.7331 34.9358 40.1471 34.9172 40.4186 34.7406C40.9141 34.4176 41.3281 33.9668 41.7761 33.569C41.7761 33.569 41.7937 33.5535 41.8246 33.5244C42.2799 32.8721 42.7176 32.2573 43.1254 31.6227C44.6543 29.2453 45.6123 26.6145 46.4608 23.937C46.7499 23.024 46.8882 22.135 46.3597 21.22C45.8383 20.3174 46.0025 19.4325 46.7086 18.6598C46.7086 18.6598 46.69 18.6505 46.7334 18.6484C47.2413 18.3088 47.7368 18.1769 48.2654 18.4708C48.7846 18.7585 48.9013 19.2466 48.8682 19.7992C48.8528 20.0578 48.8868 20.3216 48.8486 20.576C48.7681 21.1182 49.0107 21.4879 49.3855 21.839C49.8996 22.3199 50.3961 22.8215 50.8658 23.346C51.3458 23.8819 51.8651 24.4075 52.2202 25.0244C52.6115 25.7026 52.8747 26.4836 52.3544 27.2512C51.8238 28.0343 51.2437 28.7842 50.7388 29.5829C50.0647 30.6474 49.4773 31.7587 49.4701 33.0757C49.4629 33.1868 49.4556 33.299 49.4546 33.4922C49.6972 35.1591 50.7099 35.5476 52.1438 34.9608C53.3909 34.4508 54.2911 33.4465 54.9642 32.2625C54.9642 32.2625 54.9539 32.2479 54.9848 32.2407C55.0623 32.1358 55.1097 32.0371 55.1572 31.9395C55.1572 31.9395 55.149 31.9322 55.1841 31.9228C55.694 31.0182 56.1534 30.1136 56.649 29.2297C57.2611 28.1382 57.8103 26.9936 58.5536 25.9976C59.9442 24.1333 61.8055 22.8734 64.0312 22.1838C64.0766 22.1786 64.121 22.1734 64.2418 22.1641C65.1399 22.1277 65.9658 22.0322 66.7834 22.0779C68.2803 22.161 69.6904 22.5598 70.8848 23.534C71.4 23.9546 71.4733 24.4417 71.1109 24.9288C70.6567 25.5396 70.1054 25.6268 69.6182 25.2747C68.5373 24.4937 67.2975 24.0595 65.9616 24.0969C64.4008 24.1416 63.1 24.8696 61.9892 25.9311C60.8258 27.0435 60.0164 28.3916 59.4703 29.91C59.0512 31.0733 58.7993 32.2645 58.8757 33.4974C58.9676 34.9764 60.1031 35.5767 61.3801 34.8486C61.7043 34.6637 62.0078 34.4197 62.271 34.1527C63.5924 32.8098 64.5639 31.2176 65.3309 29.5112C65.7954 28.4767 66.1495 27.3872 66.4819 26.3009C66.6709 25.6818 67.2035 25.2643 67.9396 25.4959C68.1667 25.5676 68.3825 25.6746 68.6013 25.7701C69.0556 25.9685 69.1794 26.2988 69.0442 26.7776C68.7479 27.8349 68.4341 28.8911 68.2049 29.964C67.9086 31.3547 67.6598 32.7589 67.4482 34.1652C67.3708 34.6814 67.6609 34.9099 68.175 34.9442C68.9657 34.9971 69.4984 34.5329 69.996 34.0219C71.2493 32.734 72.0844 31.1647 72.9154 29.5922C73.0569 29.3253 73.2561 29.0895 73.4295 28.8392L73.4306 28.8423Z" fill="#E6068A"/>
<path d="M20.3562 17.8019C20.2777 17.805 20.2003 17.8071 20.0434 17.8123C19.8566 17.8195 19.7482 17.8247 19.6398 17.8299C19.5923 17.8216 19.5458 17.8133 19.4302 17.8029C19.3156 17.8071 19.2702 17.8133 19.2248 17.8195C19.1783 17.8112 19.1329 17.804 19.0173 17.7801C18.0737 17.6035 17.1931 17.4737 16.328 17.2732C15.5775 17.0998 15.3029 17.2026 15.114 17.94C14.4946 20.3517 13.9227 22.7768 13.2672 25.1791C12.6436 27.4651 12.113 29.777 11.2541 31.9997C10.4231 34.1506 9.36185 36.0482 7.14233 37.0193C7.14233 37.0193 7.14439 37.0224 7.10207 37.0245C6.29788 37.1346 5.53601 37.2436 4.77415 37.3527C4.69776 37.3392 4.62033 37.3246 4.47168 37.2924C3.78621 37.1294 3.15752 37.0307 2.56289 36.8302C1.11246 36.3411 -0.0293012 34.6762 0.000636543 33.1131C0.0171539 32.2687 0.177166 31.4783 0.442476 30.6931C0.442476 30.6931 0.435249 30.6889 0.466219 30.6734C0.549838 30.5321 0.601455 30.4075 0.654104 30.2818C0.654104 30.2818 0.644813 30.2735 0.679913 30.2642C1.04846 29.8207 1.33441 29.3315 1.73393 28.97C1.99717 28.7322 2.44108 28.5276 2.77349 28.5681C3.68814 28.6782 3.98958 29.3751 3.53122 30.1883C3.16681 30.8343 2.7993 31.47 2.82614 32.2469C2.81891 32.2936 2.81272 32.3393 2.80342 32.4546C2.80755 32.5688 2.81375 32.6145 2.81994 32.6602C2.81375 32.7392 2.80859 32.8181 2.80652 32.976C2.89737 33.8525 3.29378 34.4518 3.99577 34.8143C5.48336 35.5818 6.93792 35.0366 7.71114 33.4683C8.65057 31.5655 9.31333 29.5745 9.81091 27.5066C10.4995 24.639 11.313 21.8016 12.0728 18.9506C12.0851 18.907 12.0965 18.8623 12.1399 18.7595C12.3463 18.0397 12.526 17.3792 12.6942 16.7165C12.8036 16.2855 12.654 15.9635 12.2348 15.8109C11.3078 15.4712 10.3828 15.1233 9.4403 14.8304C9.07589 14.7172 8.66708 14.7442 8.27893 14.7068C8.23454 14.6954 8.19015 14.685 8.07659 14.6549C6.98025 14.4825 6.08934 14.8211 5.26348 15.3985C5.26348 15.3985 5.28412 15.3996 5.24077 15.4058C4.45826 15.9926 4.05874 16.757 4.18882 17.6939C4.32715 18.692 5.61757 19.4024 6.84295 18.8675C6.91934 18.8592 6.9947 18.8509 7.14336 18.826C7.73592 18.6774 8.19118 18.1664 8.79716 18.5351C8.79716 18.5351 8.79613 18.5372 8.80129 18.5642C8.83845 18.6058 8.86942 18.6203 8.90142 18.6338C8.90142 18.6338 8.90142 18.6411 8.91794 18.6733C9.29061 19.3494 9.27823 19.6485 8.66605 20.0027C7.91658 20.4358 7.10103 20.7546 6.31336 21.1223C6.26691 21.1265 6.22148 21.1296 6.09451 21.1358C5.27277 21.06 4.49232 21.1036 3.79859 20.8793C1.55533 20.1533 0.879153 17.9733 1.42629 16.2305C1.6214 15.6094 2.07356 15.0714 2.40804 14.495C2.40804 14.495 2.39875 14.4877 2.43385 14.4804C3.7222 13.1043 5.36568 12.6452 7.12271 12.5185C9.39178 12.3554 11.5019 12.9973 13.5789 13.8562C14.9158 14.4087 16.3084 14.8242 17.6763 15.3009C17.7207 15.3123 17.764 15.3248 17.8755 15.3612C18.5899 15.3996 19.2392 15.465 19.8813 15.4183C21.4113 15.3071 22.2825 14.576 22.7347 13.1146C22.8679 12.6847 23.1084 12.4001 23.6081 12.3907C24.3503 12.3762 24.7612 12.8612 24.6301 13.7575C24.4835 14.7608 24.0984 15.6758 23.4222 16.4486C23.3902 16.4507 23.3665 16.4652 23.3128 16.5285C22.3971 17.2036 21.4319 17.6367 20.3562 17.805V17.8019Z" fill="#E7058A"/>
<path d="M4.07419 8.97062C4.06593 8.92699 4.05664 8.88233 4.03909 8.76913C3.94927 8.65072 3.87495 8.58218 3.7872 8.55517C3.45582 8.45339 3.34123 8.19374 3.45788 7.91851C3.52292 7.76583 3.85636 7.56849 3.94205 7.61731C4.12271 7.72013 4.23833 7.96213 4.34569 8.16569C4.40247 8.27267 4.33743 8.47624 4.4097 8.53752C4.94135 8.99243 5.4761 9.44838 6.04698 9.85032C6.3319 10.0508 6.6829 9.99468 6.78303 9.60001C6.99156 8.77847 7.15158 7.94447 7.33223 7.11566C7.34359 7.06996 7.35598 7.0253 7.39211 6.91209C7.45921 6.38033 7.50154 5.91711 7.54386 5.45285C7.55006 5.43415 7.55522 5.41442 7.57277 5.36249C7.58412 5.32925 7.59238 5.29394 7.59238 5.29394L7.55728 5.28563C7.55728 5.28563 7.52218 5.24824 7.48708 5.21604C7.42101 5.16515 7.38901 5.14646 7.35804 5.1288C7.35804 5.1288 7.35598 5.13711 7.35082 5.11011C7.31468 5.06545 7.28371 5.04675 7.25378 5.0291C7.25378 5.0291 7.25068 5.03533 7.25171 4.98963C7.33017 4.73828 7.35598 4.4724 7.50154 4.34673C7.59238 4.26883 7.96609 4.34257 8.02906 4.45371C8.123 4.61781 8.05177 4.87642 8.05384 5.09453C8.05487 5.20254 8.02906 5.32821 8.07345 5.4165C8.33979 5.95242 8.62162 6.48003 8.89932 7.01076C8.89932 7.01076 8.90241 7.00868 8.90654 7.04607C9.24308 7.62354 9.53111 8.19997 9.9203 8.69538C10.3745 9.27285 10.6687 9.21469 11.0373 8.57387C11.1312 8.41081 11.2272 8.24151 11.284 8.06391C11.6247 6.98687 11.954 5.90672 12.2874 4.82761C12.3009 4.75283 12.3143 4.67805 12.3576 4.53991C12.4258 4.28234 12.4619 4.08812 12.4991 3.89286C12.5084 3.84924 12.5187 3.80458 12.561 3.70695C12.7355 3.31124 12.6178 3.07651 12.3545 2.82413C11.9654 2.45127 11.636 2.01609 11.2819 1.60688C11.2788 1.56118 11.2758 1.51444 11.2727 1.39189C11.219 0.83623 11.3976 0.462331 11.8177 0.236953C12.2781 -0.0091973 12.6374 0.251494 12.9708 0.536072C13.5768 0.0333856 14.1064 0.0250768 14.4388 0.5153C14.7124 0.919319 14.7836 1.36592 14.4915 1.76994C14.2024 2.16877 13.8297 2.50528 13.5128 2.88541C13.3931 3.02873 13.2382 3.23022 13.2578 3.38498C13.3022 3.73395 13.4447 4.0715 13.5479 4.4132C13.5479 4.45994 13.549 4.50667 13.5562 4.62404C13.6284 4.87746 13.6935 5.06025 13.7595 5.24201C13.7595 5.28979 13.7595 5.33756 13.7657 5.44558C13.7957 5.52867 13.8194 5.55152 13.8432 5.57436C13.8432 5.57436 13.8463 5.56294 13.8442 5.6076C14.2035 6.66075 14.5173 7.69001 14.9457 8.66942C15.1904 9.22923 15.6219 9.24377 15.9718 8.75043C16.3548 8.21139 16.6511 7.61004 16.9846 7.03569C16.9846 7.03569 16.9804 7.01803 17.0093 7.00765C17.3036 6.48211 17.5751 5.97007 17.829 5.45077C17.8786 5.34795 17.8713 5.21501 17.8786 5.09453C17.893 4.85045 17.8982 4.60534 17.9075 4.36023C18.1686 4.41528 18.4309 4.46928 18.692 4.52433C18.6982 4.63338 18.7034 4.74244 18.6817 4.90654C18.6311 5.01767 18.6095 5.07272 18.5867 5.1288C18.5867 5.1288 18.5981 5.13607 18.5568 5.14023C18.4432 5.26486 18.3018 5.38949 18.3101 5.50374C18.3338 5.83921 18.4164 6.17053 18.4753 6.50288C18.4835 6.57974 18.4928 6.65556 18.5042 6.81239C18.6786 7.72429 18.818 8.56452 19.0327 9.38502C19.1938 10.004 19.5406 10.1214 20.0619 9.74646C20.5151 9.4193 20.9136 9.01735 21.3369 8.64865C21.3369 8.64865 21.3534 8.63515 21.3885 8.60918C21.467 8.45235 21.4917 8.31006 21.5557 8.19062C21.6631 7.99121 21.7622 7.70144 21.9294 7.64639C22.074 7.59861 22.4198 7.78868 22.4683 7.94032C22.5148 8.08676 22.3083 8.32876 22.1896 8.51259C22.0719 8.69435 21.8799 8.83767 21.7952 9.03086C21.1273 10.5545 20.478 12.0854 19.8214 13.6142C19.6728 13.9601 19.4167 14.0214 19.0688 13.9414C18.4071 13.7898 17.7382 13.6682 17.0723 13.5343C17.0723 13.5343 17.0661 13.5436 17.062 13.5166C17.0238 13.4823 16.9908 13.4751 16.9567 13.4668C16.9133 13.4533 16.8689 13.4408 16.7667 13.4013C16.2815 13.2175 15.8552 13.0596 15.4288 12.9018C15.4288 12.9018 15.4164 12.9059 15.402 12.8779C13.5448 11.9244 11.6577 11.0987 9.57033 11.0021C8.42031 10.9492 7.261 11.0873 6.10582 11.1403C6.0604 11.1465 6.01601 11.1517 5.89626 11.1631C5.7187 11.1683 5.60204 11.1361 5.51636 11.1745C5.0611 11.3792 4.87631 11.1413 4.73901 10.7487C4.53151 10.1526 4.29924 9.56574 4.07728 8.97477L4.07419 8.97062Z" fill="#E6068A"/>
<path d="M62.5663 17.2286C63.5005 17.8403 64.4358 18.4531 65.4258 19.095C65.6509 19.2341 65.8202 19.3432 65.9895 19.4533C66.5212 19.9975 67.0518 20.5418 67.6041 21.1078C67.4626 21.2044 67.442 21.2262 67.4162 21.2345C66.8174 21.4485 66.4489 21.1836 65.972 20.7817C65.0728 20.0245 64.0157 19.4595 63.0432 18.7875C62.367 18.3202 61.7115 17.8196 61.0725 17.3034C60.8402 17.1164 60.6812 17.0531 60.4108 17.2296C59.5085 17.8175 58.7198 18.504 58.1438 19.4398C57.2105 20.9551 55.8159 21.489 54.0712 21.1971C54.1775 20.9427 54.3045 20.7287 54.4748 20.5168C54.6462 20.4815 54.7763 20.4109 54.9043 20.415C55.9315 20.4524 56.6531 19.9778 57.2198 19.1396C57.7907 18.2952 58.4638 17.536 59.332 16.9721C59.6138 16.7893 59.8554 16.5431 60.1124 16.3271C59.7456 15.8237 59.2776 15.6548 58.7085 15.8202C58.4628 15.8909 58.2171 15.9978 57.9672 16.0093C57.4862 16.0321 57.1785 16.3032 56.9081 16.6501C56.2412 17.5038 55.5784 18.3596 54.8919 19.1843C54.7928 18.7824 54.7164 18.4116 54.64 18.0408C54.7753 17.7957 54.9105 17.5495 55.0447 17.3044C55.0189 17.2712 54.992 17.2379 54.9662 17.2057C54.8165 17.2816 54.67 17.3636 54.5172 17.4322C53.9308 17.698 53.3641 18.0439 52.7488 18.2007C52.0396 18.3825 51.3686 18.1426 50.7863 17.5558C50.7523 17.3449 50.2495 17.3252 50.6459 17.0666C50.7492 17.0458 50.8224 17.0219 50.9391 16.9918C51.1456 17.0115 51.3427 16.9876 51.4666 17.0728C51.9972 17.4332 52.5537 17.401 53.0822 17.1549C53.6531 16.889 54.2209 16.5867 54.7247 16.2118C56.1431 15.1576 57.8506 15.0184 59.4889 14.6435C59.8389 14.926 60.1754 15.1773 60.5119 15.4256C60.5119 15.4214 60.5047 15.4235 60.4758 15.4536C60.8443 15.814 61.2418 16.1453 61.6392 16.4756C61.7879 16.6137 61.9376 16.7519 62.1358 16.9305C62.3123 17.0562 62.4372 17.1424 62.5632 17.2276L62.5663 17.2286Z" fill="#4B3649"/>
<path d="M65.2628 8.38898C66.1671 8.69226 67.0869 8.95814 67.9716 9.31231C68.6818 9.59688 69.3498 9.98948 70.0951 10.3603C70.2747 10.4496 70.3955 10.5129 70.5163 10.5753C71.8872 11.3854 72.8442 12.5974 73.6897 13.9092C74.0851 14.522 74.4371 15.1628 74.8366 15.8503C74.9275 16.0373 74.9904 16.165 75.0534 16.2918C75.2939 17.0292 75.5396 17.7645 75.774 18.504C75.8927 18.8769 75.9908 19.2559 76.0001 19.6797C75.3528 18.5923 74.7065 17.5049 74.0314 16.353C73.8838 16.1214 73.764 15.9532 73.6443 15.786C73.0001 14.8574 72.4272 13.8645 71.687 13.0212C71.1212 12.3772 70.3749 11.8704 69.6481 11.3989C69.0617 11.0187 68.3876 10.7747 67.7455 10.4828C67.2841 10.2741 66.8247 10.0456 66.3436 9.89704C64.4049 9.29984 62.4651 8.7068 60.5119 8.16049C59.5612 7.8946 58.5815 7.73362 57.5481 7.49058C57.2921 7.43658 57.1021 7.41684 56.9122 7.39711C56.7181 7.35972 56.524 7.32129 56.2691 7.26209C56.1648 7.2382 56.1214 7.23613 56.0781 7.23405C55.9924 7.22678 55.9067 7.21951 55.8045 7.17589C55.8809 7.08241 55.9748 7.02321 56.1555 6.91104C55.6187 6.64516 55.1572 6.41666 54.7391 6.18298C54.8702 6.17155 54.957 6.16532 55.0437 6.15909C56.1607 6.33669 57.29 6.45821 58.3926 6.7054C60.4934 7.17693 62.5777 7.72116 64.7435 8.25085C64.9654 8.30693 65.1131 8.34744 65.2607 8.38794L65.2628 8.38898Z" fill="#4B374A"/>
<path d="M59.2763 9.89081C59.3795 9.90431 59.4827 9.91782 59.6541 9.95832C59.9876 10.0269 60.2529 10.0684 60.5172 10.111C61.6434 10.5919 62.7873 11.0343 63.8877 11.5702C64.4927 11.8652 65.0481 12.2838 65.5797 12.7044C66.0453 13.0721 66.4541 13.5145 66.8743 13.9372C66.9744 14.039 67.0167 14.1979 67.0188 14.362C66.8371 14.3589 66.7225 14.3246 66.6079 14.2904C65.9844 13.9248 65.3619 13.5581 64.6857 13.1489C64.4307 12.9755 64.2294 12.8457 64.0281 12.7158C63.61 12.4645 63.193 12.2131 62.715 11.9265C62.5281 11.8527 62.4022 11.8143 62.2762 11.7769C61.4235 11.3999 60.5904 11.5297 59.6923 11.8891C58.5423 12.4645 57.4594 13.0108 56.3919 13.5883C55.1728 14.2478 53.967 14.9343 52.7602 15.5668C52.9326 15.1493 53.0998 14.7744 53.2805 14.3714C53.3001 14.3257 53.3063 14.307 53.3125 14.2883C54.7061 13.4553 56.0988 12.6234 57.5574 11.7686C57.7742 11.6616 57.927 11.5765 58.0798 11.4913C58.2522 11.4228 58.4256 11.3532 58.6672 11.2659C58.9346 11.1538 59.1338 11.0603 59.46 10.9055C59.0533 10.8401 58.8045 10.8006 58.5567 10.7612C58.3812 10.7134 58.2058 10.6656 57.9642 10.5877C57.7794 10.5358 57.6596 10.515 57.5409 10.4942C57.2498 10.3966 56.9597 10.2979 56.6129 10.1806C56.5582 10.1608 56.5138 10.1619 56.5138 10.1619C54.7929 9.62908 53.3259 8.72134 52.2605 7.22886C52.1552 7.08033 52.0964 6.89858 51.9818 6.67839C51.955 6.57765 51.9612 6.53195 52.0004 6.50287C52.3473 6.61919 52.6601 6.71786 52.9894 6.84457C53.1401 6.96401 53.2764 7.05541 53.426 7.179C53.5417 7.2974 53.6449 7.38361 53.7492 7.47189C53.7492 7.47397 53.7461 7.47501 53.7461 7.47501C55.3173 8.73172 57.1548 9.37358 59.1328 9.83784C59.2154 9.87108 59.2463 9.88042 59.2773 9.88873L59.2763 9.89081Z" fill="#4B374A"/>
<path d="M61.2512 13.2362C61.085 13.0471 60.9188 12.8581 60.7051 12.614C60.8527 12.6462 60.9621 12.6701 61.1046 12.694C61.3173 12.7366 61.4969 12.7781 61.7467 12.8384C61.9573 12.8924 62.0987 12.9298 62.2391 12.9672C62.2391 12.9672 62.2691 12.9641 62.2691 12.9869C62.3042 13.0118 62.3393 13.0129 62.3744 13.0149C63.8589 13.5498 65.236 14.2987 66.5326 15.1939C68.1338 16.3011 69.6286 17.5381 70.9923 18.9662C70.3048 19.0929 70.0498 19.0565 68.9338 18.3025C67.7456 17.4997 66.6193 16.6044 65.4517 15.7683C64.8231 15.3186 64.1665 14.9083 63.4635 14.443C63.0299 14.2675 62.6531 14.1294 62.2443 13.9767C61.947 13.7534 61.6817 13.5446 61.4143 13.3006C61.3544 13.2528 61.2976 13.2424 61.2409 13.2351C61.2419 13.2393 61.2501 13.2362 61.2501 13.2362H61.2512Z" fill="#4B374A"/>
<path d="M26.7319 18.7554C26.7392 18.8 26.7464 18.8447 26.7577 18.9673C26.7629 19.1137 26.7546 19.1854 26.7691 19.2518C26.9198 19.9529 26.1507 20.8596 25.3187 21.0871C24.7302 21.248 23.8589 20.8316 23.5451 20.2292C23.2044 19.5748 23.3841 18.5508 23.9921 18.0668C24.9305 17.32 26.0103 17.4114 26.7319 18.7543V18.7554Z" fill="#E6068A"/>
<path d="M61.4173 13.3369C61.6826 13.5446 61.9469 13.7534 62.2576 14.0078C62.3877 14.1387 62.46 14.2415 62.557 14.3049C63.0051 14.5967 62.9524 14.9384 62.653 15.2884C62.4001 15.5834 62.1224 15.8576 61.8561 16.1401C61.8561 16.1401 61.8065 16.1474 61.7477 16.1525C61.2955 15.9137 60.9022 15.6686 60.5089 15.4245C60.5089 15.4245 60.5161 15.4224 60.514 15.3902C60.1734 15.0599 59.8348 14.7608 59.4962 14.4627C59.269 14.12 59.0203 13.7908 58.821 13.4335C58.5072 12.8716 58.7064 12.5205 59.3413 12.6369C59.969 12.7511 60.5657 13.0398 61.214 13.2444C61.2522 13.2372 61.2449 13.2403 61.2418 13.2683C61.2986 13.3109 61.3585 13.3244 61.4184 13.3379L61.4173 13.3369Z" fill="#E6068A"/>
<path d="M52.9739 6.81756C52.66 6.7189 52.3462 6.62023 51.9807 6.47275C51.703 6.31799 51.478 6.21309 51.1487 6.05834C51.3851 5.9067 51.5379 5.73533 51.7092 5.7156C52.0757 5.67094 52.4608 5.65121 52.82 5.71871C53.4529 5.83712 54.0723 6.02822 54.6979 6.18921C55.1593 6.4177 55.6208 6.64723 56.1576 6.91312C55.9769 7.02529 55.883 7.08449 55.7642 7.16965C55.7013 7.19666 55.6641 7.19666 55.566 7.16965C55.1996 7.10837 54.894 7.07722 54.5895 7.03775C54.0506 6.96712 53.5127 6.8913 52.9739 6.8186V6.81756Z" fill="#DA1488"/>
<path d="M51.1343 15.4328C51.827 15.0995 52.5176 14.765 53.2371 14.415C53.0988 14.7744 52.9305 15.1503 52.7581 15.5679C52.1377 16.0467 51.5214 16.4839 50.902 16.9606C50.8246 17.024 50.7513 17.0479 50.6129 17.0437C50.2588 17.0126 49.9698 17.0084 49.6807 17.0043C49.6374 16.9939 49.593 16.9845 49.5269 16.9378C49.9935 16.4486 50.4808 15.9958 50.9691 15.5429C50.9691 15.5429 51.0021 15.5429 51.0383 15.5274C51.095 15.4837 51.1167 15.4567 51.1374 15.4297C51.1374 15.4297 51.1312 15.4318 51.1343 15.4339V15.4328Z" fill="#DA1488"/>
<path d="M58.1417 0.0011912C58.1593 0.00950007 58.1768 0.0178089 58.2202 0.0832413C58.2264 0.906858 58.4401 1.51444 59.2742 1.73255C59.3847 1.76163 59.4631 1.91535 59.5571 2.0109C59.5571 2.0109 59.5168 2.00675 59.4569 2.01402C58.6558 1.99532 58.1201 2.26847 57.9095 3.03497C57.8744 3.16376 57.7907 3.27904 57.7298 3.40056C57.7133 3.3964 57.6958 3.39121 57.6534 3.33305C57.704 2.2799 57.1466 1.75332 56.203 1.45317C57.3097 1.5321 57.8341 0.949441 58.1097 0.0416969C58.1149 0.0261178 58.1293 0.0136545 58.1397 0.000152588L58.1417 0.0011912Z" fill="#DA1488"/>
<path d="M51.8941 12.0875C51.7465 12.0075 51.6195 11.9317 51.3975 11.7977C52.1429 11.751 52.6725 11.5214 52.8428 10.7425C52.9316 11.4591 53.2144 11.9681 53.9753 12.1322C53.2041 12.1675 52.7406 12.5466 52.6064 13.1469C52.4175 12.8166 52.2182 12.4697 51.9829 12.1218C51.9457 12.1207 51.9147 12.0906 51.893 12.0875H51.8941Z" fill="#DA1488"/>
<path d="M50.5386 3.62902C51.0269 3.61136 51.4429 3.47842 51.5317 3.01416C51.7619 3.25719 52.0158 3.52516 52.307 3.79416C52.3503 3.81285 52.3555 3.82947 52.3751 3.86894C51.9405 3.99253 51.5069 4.11197 51.3851 4.69671C51.3706 4.1369 51.0702 3.8492 50.584 3.67575C50.551 3.66433 50.5479 3.63836 50.5386 3.62798V3.62902Z" fill="#DA1488"/>
<path d="M55.0551 11.3137C55.3338 11.1475 55.6208 11.0312 55.7881 11.4207C55.9316 11.7562 55.7695 11.9431 55.3927 12.0065C55.3122 12.0033 55.2688 11.9909 55.1749 11.94C55.0923 11.724 55.0603 11.5484 55.0293 11.3729C55.0293 11.3729 55.0541 11.3366 55.0561 11.3137H55.0551Z" fill="#DA1488"/>
<path d="M65.2638 8.35578C65.1151 8.3485 64.9675 8.308 64.7848 8.25191C64.8922 7.85932 65.0522 8.24257 65.2349 8.24049C65.2659 8.27684 65.2659 8.29865 65.2638 8.35578Z" fill="#FBF8FB"/>
<path d="M61.3234 0.64204C61.3038 0.654503 61.2656 0.64204 61.2098 0.606727C61.2295 0.594264 61.2677 0.606727 61.3234 0.64204Z" fill="#FEF7FD"/>
<path d="M54.2303 18.7938C54.2654 18.7065 54.2974 18.6608 54.3366 18.586C54.4254 18.531 54.5049 18.4998 54.5874 18.4791C54.6153 18.4718 54.6504 18.4915 54.7526 18.5154C54.6525 19.6766 54.3242 20.7173 53.2547 21.5876C53.3569 21.1026 53.4312 20.7526 53.5107 20.361C53.7533 19.8251 53.9908 19.3297 54.2313 18.7938H54.2303Z" fill="#E6068A"/>
</svg>
