<?xml version="1.0" standalone="no"?>
<!DOCTYPE svg PUBLIC "-//W3C//DTD SVG 20010904//EN"
 "http://www.w3.org/TR/2001/REC-SVG-20010904/DTD/svg10.dtd">
<svg version="1.0" xmlns="http://www.w3.org/2000/svg"
 width="1472.000000pt" height="1472.000000pt" viewBox="0 0 1472.000000 1472.000000"
 preserveAspectRatio="xMidYMid meet">
<metadata>
Created by potrace 1.14, written by Peter Selinger 2001-2017
</metadata>
<g transform="translate(0.000000,1472.000000) scale(0.100000,-0.100000)"
fill="#000000" stroke="none">
<path d="M11251 10929 c-63 -163 -141 -237 -268 -255 -26 -4 -57 -7 -68 -6
-16 0 -16 -2 5 -10 115 -48 179 -100 217 -178 18 -35 32 -110 29 -143 -2 -15
0 -30 4 -32 12 -8 29 18 55 84 39 99 114 161 203 166 17 1 35 4 38 8 3 3 12 3
20 0 8 -3 21 -3 29 1 13 5 12 10 -7 31 -12 14 -28 25 -35 25 -35 0 -140 72
-152 105 -2 6 -11 26 -19 45 -8 19 -16 53 -19 75 -2 22 -6 53 -7 68 -5 38 -14
44 -25 16z"/>
<path d="M2316 10915 c-33 -12 -53 -25 -91 -60 -25 -23 -43 -92 -41 -155 2
-54 7 -70 27 -91 13 -14 44 -50 69 -79 25 -30 64 -73 86 -95 79 -79 96 -127
70 -189 -8 -19 -17 -52 -20 -72 -4 -20 -8 -40 -11 -44 -2 -3 -7 -22 -10 -41
-12 -67 -198 -666 -227 -729 -28 -62 -74 -127 -104 -146 -48 -32 -112 10 -185
124 -24 37 -46 69 -49 72 -3 3 -13 21 -24 40 -10 19 -28 51 -39 70 -11 19 -47
87 -80 150 -33 63 -75 144 -93 179 -32 60 -34 70 -32 147 3 92 -6 111 -56 120
-48 8 -63 -3 -85 -67 l-20 -60 35 -31 c21 -19 32 -38 29 -47 -2 -9 -7 -43 -10
-76 -3 -33 -8 -78 -12 -100 -3 -22 -7 -56 -8 -75 -2 -19 -10 -66 -20 -105 -9
-38 -19 -81 -21 -95 -3 -14 -19 -86 -35 -160 -17 -74 -32 -144 -34 -154 -27
-123 -74 -143 -176 -74 -35 24 -75 53 -89 65 -14 11 -67 55 -117 97 -88 72
-98 84 -94 113 2 18 -35 88 -61 115 -13 13 -32 22 -43 20 -36 -5 -74 -46 -80
-85 -7 -40 6 -58 74 -100 26 -17 39 -36 53 -77 10 -30 22 -64 27 -75 5 -11 14
-33 20 -50 19 -58 82 -220 97 -252 14 -30 45 -56 69 -58 6 -1 24 3 40 7 17 5
71 11 120 13 50 3 124 7 165 10 41 2 127 7 190 11 225 14 415 7 570 -21 91
-16 308 -73 325 -85 6 -4 24 -10 40 -14 17 -4 46 -14 65 -23 19 -8 44 -19 55
-23 77 -30 170 -72 300 -135 83 -40 218 -98 301 -128 138 -51 166 -60 229 -72
11 -2 29 -5 40 -8 24 -6 103 -19 110 -18 2 0 19 -5 37 -10 106 -31 189 -32
217 -4 11 11 102 209 201 440 100 231 190 438 200 460 9 22 36 62 58 89 22 26
51 69 65 95 28 51 24 65 -23 92 -44 24 -68 20 -95 -15 -14 -18 -25 -36 -25
-39 0 -20 -58 -125 -77 -140 -13 -10 -29 -24 -36 -31 -46 -44 -172 -149 -204
-169 -98 -61 -161 -32 -188 88 -4 17 -7 31 -7 32 0 1 -6 23 -14 49 -7 25 -11
50 -8 55 3 5 0 9 -6 9 -6 0 -9 4 -6 8 3 5 1 24 -4 43 -5 19 -11 50 -14 70 -3
20 -8 42 -10 50 -3 8 -7 30 -10 49 -3 19 -8 46 -11 60 -3 14 -8 45 -11 70 -3
25 -12 79 -20 120 -21 115 -19 139 18 177 28 28 32 41 33 85 0 38 -4 51 -15
53 -23 4 -72 13 -102 20 -25 5 -28 2 -29 -22 -5 -152 -8 -166 -64 -275 -61
-120 -72 -139 -139 -251 -25 -43 -46 -80 -46 -83 0 -21 -151 -244 -173 -256
-42 -22 -83 -21 -110 4 -21 20 -87 147 -87 168 0 4 -8 25 -17 46 -9 22 -18 44
-19 49 -1 6 -26 75 -54 155 -28 80 -53 152 -55 161 -2 8 -10 32 -18 52 -9 20
-18 51 -21 69 -3 18 -12 52 -20 75 -8 24 -18 61 -21 83 -3 22 -13 59 -21 83
-33 89 -40 147 -23 180 13 23 50 68 159 187 52 57 91 113 95 137 2 10 4 18 5
18 1 0 2 16 3 35 3 43 -48 146 -85 173 -53 40 -143 29 -219 -26 -26 -19 -26
-19 -71 13 -57 40 -104 51 -152 35z"/>
<path d="M9979 10362 c-1 -4 -1 -10 0 -14 0 -4 -14 -23 -33 -41 -30 -31 -70
-48 -118 -51 -32 -2 -29 -15 9 -32 21 -9 49 -29 61 -43 26 -28 53 -76 51 -88
-5 -32 5 -31 20 2 11 22 20 37 20 33 1 -3 14 6 31 22 16 15 50 33 75 40 25 7
45 14 45 16 0 8 -160 163 -161 156z"/>
<path d="M10025 9850 c-36 -8 -72 -26 -96 -49 -17 -16 -14 -19 61 -56 54 -27
79 -45 77 -55 -4 -21 49 -127 91 -180 87 -111 259 -263 383 -338 99 -60 253
-127 421 -182 102 -33 197 -63 210 -65 12 -3 55 -14 93 -25 39 -12 86 -23 105
-26 19 -2 49 -7 65 -11 34 -8 44 -9 65 -11 17 -2 -36 -30 -105 -56 -76 -28
-134 -54 -195 -85 -62 -32 -79 -41 -238 -135 -62 -36 -115 -66 -118 -66 -3 0
-10 -5 -17 -10 -7 -6 -88 -56 -182 -110 -93 -55 -177 -104 -185 -110 -8 -5
-41 -24 -72 -42 -32 -18 -60 -41 -63 -50 -3 -9 -19 -20 -35 -23 -17 -4 -30
-11 -30 -16 0 -5 -6 -9 -13 -9 -7 0 -72 -29 -145 -65 -74 -36 -136 -65 -139
-65 -15 0 -113 -69 -155 -110 -26 -25 -83 -80 -127 -123 -80 -77 -93 -96 -68
-98 6 0 50 -2 95 -4 79 -3 113 -12 85 -22 -24 -9 -13 -27 53 -89 140 -130 268
-158 439 -95 52 20 243 108 306 142 36 19 69 25 69 13 0 -4 -18 -39 -40 -79
-22 -39 -38 -74 -36 -76 2 -2 6 -21 10 -42 5 -29 4 -38 -6 -36 -7 1 -24 -1
-38 -5 -22 -6 -39 -35 -103 -176 -80 -172 -92 -206 -102 -269 -3 -20 -12 -60
-19 -88 -13 -48 -13 -52 2 -44 24 13 112 108 144 156 49 72 90 177 112 289 24
117 22 115 42 34 1 -5 2 -14 3 -20 2 -13 12 -3 61 61 14 17 35 43 47 56 12 14
34 42 50 62 15 21 30 40 33 43 3 3 29 36 59 74 64 82 79 101 109 134 12 14 22
28 22 32 0 4 22 29 50 56 49 48 121 84 168 84 12 0 55 9 95 21 134 39 198 31
273 -36 l49 -43 -45 -41 c-25 -23 -80 -66 -123 -97 -139 -99 -237 -195 -343
-339 -109 -147 -148 -189 -215 -234 -75 -50 -141 -71 -243 -77 -43 -3 -91 -11
-107 -20 -34 -17 -77 -78 -81 -113 -3 -28 -2 -28 137 -34 81 -3 221 19 280 44
17 7 32 13 35 14 6 1 79 41 105 58 51 31 152 140 207 222 92 137 172 228 272
309 21 17 43 36 50 41 6 6 43 32 81 58 92 62 118 62 193 1 82 -65 77 -61 202
-154 63 -46 117 -87 120 -91 3 -3 10 -8 15 -10 25 -10 513 -332 540 -356 113
-102 192 -145 260 -142 48 2 62 6 94 28 12 8 12 11 0 24 -112 118 -317 318
-331 323 -10 3 -18 10 -18 15 0 5 -5 9 -10 9 -6 0 -52 27 -103 60 -50 33 -99
65 -107 70 -8 5 -58 38 -110 72 -266 172 -379 250 -415 285 -23 21 -63 57 -90
80 -113 95 -188 163 -179 163 3 0 54 -29 113 -64 58 -35 115 -66 127 -70 16
-5 36 10 100 76 87 91 124 144 124 178 0 30 -26 72 -59 94 -14 10 -34 29 -44
42 l-17 23 67 -25 c38 -14 82 -31 100 -39 17 -8 34 -15 39 -15 10 0 214 -129
240 -152 11 -10 24 -18 28 -18 8 0 166 -108 176 -120 3 -4 30 -23 60 -43 30
-20 66 -46 80 -57 40 -34 348 -258 430 -313 41 -28 76 -54 78 -59 2 -4 8 -8
12 -8 5 0 37 -18 71 -40 106 -68 208 -95 286 -74 20 5 12 16 -76 103 -145 142
-338 310 -481 420 -14 11 -38 30 -55 43 -16 13 -47 35 -67 48 -21 14 -38 28
-38 33 0 4 -6 7 -14 7 -8 0 -16 3 -18 8 -4 9 -182 130 -283 192 -68 42 -433
232 -438 228 -2 -2 -130 48 -158 62 -19 10 -251 66 -302 73 l-38 6 38 -42 c20
-23 44 -50 52 -59 9 -10 21 -18 28 -18 7 0 13 -5 13 -11 0 -6 -11 -4 -27 5
-16 8 -44 20 -63 26 -19 7 -44 16 -55 20 -119 48 -253 83 -310 82 -42 -1 -75
-41 -69 -84 9 -60 133 -251 203 -313 19 -16 46 -41 60 -54 14 -13 33 -28 41
-35 8 -6 22 -20 30 -30 14 -19 -62 33 -142 97 -35 28 -38 29 -90 17 -29 -6
-66 -14 -83 -17 -16 -2 -61 -11 -100 -20 -38 -8 -81 -17 -94 -19 -152 -30
-319 -82 -421 -132 -43 -21 -133 -74 -140 -82 -3 -3 -23 -17 -45 -30 -22 -13
-42 -27 -45 -30 -19 -24 -286 -160 -314 -160 -8 0 -17 -4 -20 -9 -3 -4 -37 -7
-76 -6 -54 2 -84 9 -122 29 -28 14 -71 29 -96 32 -26 3 -48 6 -49 8 -2 1 60
49 138 107 77 57 149 111 159 119 50 39 81 58 165 101 49 26 110 58 135 72 25
14 65 36 90 48 25 13 65 35 90 49 46 27 153 85 315 172 50 27 187 97 305 156
118 59 217 109 220 112 5 5 112 54 145 66 28 10 36 12 70 19 17 3 46 10 65 14
41 9 169 6 208 -5 15 -4 30 -8 34 -8 3 -1 10 -4 14 -8 4 -5 18 -8 30 -8 13 0
26 -4 29 -10 3 -5 15 -10 26 -10 20 0 241 -128 366 -212 40 -26 75 -48 78 -48
4 0 26 -13 50 -30 24 -16 48 -30 54 -30 6 0 11 -4 11 -10 0 -5 4 -10 10 -10
13 0 183 -101 192 -114 4 -6 8 -7 8 -2 0 5 6 4 13 -2 6 -5 29 -15 50 -20 44
-12 54 -2 38 41 -13 34 -187 207 -296 295 -47 38 -126 92 -134 92 -5 0 -11 4
-13 8 -6 16 -138 90 -255 142 -160 71 -156 70 -338 145 -88 37 -173 73 -190
81 -16 7 -39 13 -50 13 -11 -1 -31 2 -45 5 -14 4 -61 14 -105 22 -44 8 -103
22 -131 30 -28 8 -60 16 -70 18 -92 19 -334 98 -464 153 -131 56 -345 174
-404 223 -88 74 -174 144 -195 160 -22 16 -23 19 -6 16 11 -2 63 -9 115 -16
52 -6 106 -14 120 -16 14 -3 43 -7 65 -9 22 -2 58 -7 80 -10 22 -3 76 -9 120
-15 88 -10 122 -16 175 -30 19 -5 55 -11 80 -14 25 -3 57 -8 71 -11 14 -3 39
-6 55 -8 16 -2 47 -9 69 -15 22 -6 51 -13 65 -15 23 -4 198 -42 245 -53 11 -3
29 -7 40 -9 11 -2 30 -6 43 -9 12 -3 30 -8 40 -10 14 -3 74 -20 117 -32 6 -2
26 -8 45 -13 19 -5 76 -21 125 -36 50 -14 97 -28 105 -30 8 -2 47 -13 85 -25
39 -11 81 -23 94 -26 14 -3 29 -8 35 -12 6 -3 20 -8 30 -9 11 -2 39 -10 63
-18 24 -8 48 -15 53 -15 5 0 21 -5 37 -12 15 -6 33 -12 39 -13 6 -2 38 -11 70
-21 33 -9 64 -18 69 -20 121 -30 330 -105 455 -162 36 -16 115 -51 175 -78
134 -58 173 -79 295 -158 147 -94 264 -192 355 -296 68 -78 285 -388 285 -408
0 -6 4 -12 9 -14 11 -4 183 -258 174 -258 -3 0 1 -8 9 -17 8 -10 86 -137 173
-283 86 -146 159 -267 162 -270 6 -7 -4 77 -16 131 -6 24 -27 94 -46 154 -20
61 -38 117 -40 125 -19 70 -88 256 -112 300 -93 172 -232 404 -244 408 -5 2
-9 8 -9 13 0 32 -253 349 -339 424 -12 11 -33 29 -45 40 -12 11 -35 29 -50 40
-16 11 -34 25 -40 32 -42 39 -522 293 -554 293 -7 0 -12 5 -12 10 0 6 -6 10
-12 10 -7 0 -47 13 -88 29 -100 39 -445 151 -466 151 -10 0 -14 5 -11 14 4 9
-7 22 -28 35 -33 19 -35 19 -47 2 -13 -18 -17 -17 -108 5 -52 13 -108 26 -125
29 -25 5 -71 17 -120 31 -5 2 -19 5 -30 8 -11 2 -20 5 -20 6 0 1 -11 3 -25 5
-14 1 -34 5 -45 9 -19 5 -124 31 -170 42 -11 3 -31 7 -45 10 -14 3 -34 8 -45
11 -23 8 -41 12 -70 18 -11 2 -47 11 -80 20 -33 8 -69 17 -80 19 -11 2 -38 8
-60 14 -22 6 -51 13 -65 16 -14 2 -56 12 -95 21 -77 18 -154 34 -200 41 -16 3
-41 7 -55 10 -50 10 -130 21 -195 29 -22 3 -51 7 -65 10 -14 3 -45 8 -70 10
-25 3 -61 8 -80 12 -51 10 -94 9 -102 -1 -4 -6 -12 -6 -20 1 -7 6 -44 18 -83
27 -38 9 -77 18 -85 20 -8 3 -37 10 -65 17 -27 6 -57 14 -65 17 -30 10 -47 12
-140 16 -52 2 -108 0 -125 -4z"/>
<path d="M10221 8839 c-28 -80 -118 -145 -212 -154 -24 -2 -46 -4 -49 -5 -3 0
20 -15 50 -32 64 -37 65 -39 126 -140 26 -43 51 -78 57 -78 6 0 8 3 4 6 -8 8
15 54 49 93 27 32 91 67 144 78 39 7 38 14 -9 36 -68 31 -123 106 -136 187 -8
46 -11 47 -24 9z"/>
<path d="M10700 8791 c-32 -15 -35 -20 -33 -55 2 -20 8 -49 16 -64 11 -23 19
-27 51 -26 69 2 101 60 63 115 -29 43 -54 51 -97 30z"/>
<path d="M4531 8560 c-38 -9 -80 -37 -95 -66 -6 -10 -13 -21 -16 -24 -4 -3
-12 -25 -19 -49 -48 -164 -159 -310 -281 -368 -38 -19 -130 -53 -130 -49 0 2
-26 -3 -57 -10 -42 -10 -111 -12 -253 -9 -107 2 -205 6 -217 9 -20 4 -430 140
-463 153 -8 4 -17 7 -20 8 -38 9 -349 125 -405 150 -60 27 -250 96 -300 109
-5 2 -17 6 -25 9 -48 20 -267 72 -405 96 -167 29 -502 32 -625 5 -14 -3 -41
-7 -60 -10 -19 -3 -62 -12 -95 -20 -33 -9 -64 -17 -70 -19 -36 -8 -71 -19 -80
-24 -5 -3 -15 -6 -21 -7 -26 -4 -175 -82 -239 -126 -111 -75 -186 -152 -262
-273 -126 -198 -146 -259 -146 -455 -1 -92 4 -130 22 -190 57 -190 173 -327
354 -420 54 -28 101 -49 104 -46 3 2 19 -2 36 -9 42 -17 170 -31 372 -39 83
-4 78 -6 223 60 29 13 55 24 58 24 5 0 181 88 275 136 83 43 106 131 55 209
-9 14 -13 25 -9 25 17 0 -43 50 -71 59 -46 15 -92 7 -185 -33 -46 -20 -99 -38
-118 -41 -18 -2 -38 -7 -43 -10 -6 -3 -19 -8 -30 -11 -11 -2 -30 -7 -43 -10
-58 -15 -147 -10 -210 11 -150 51 -228 152 -228 297 0 80 2 93 25 156 24 68
92 156 162 212 18 15 108 69 169 102 73 39 178 61 290 62 61 0 119 -3 130 -8
11 -4 58 -10 105 -12 47 -3 103 -10 125 -16 22 -6 45 -12 50 -14 13 -3 105
-33 125 -41 8 -3 21 -7 27 -9 11 -2 64 -21 193 -69 19 -8 69 -26 110 -41 89
-32 114 -49 132 -89 19 -40 14 -79 -33 -248 -22 -78 -41 -149 -43 -157 -1 -8
-5 -22 -9 -30 -4 -8 -8 -24 -10 -35 -2 -11 -7 -27 -10 -35 -13 -33 -36 -120
-31 -120 3 0 0 -9 -6 -21 -6 -11 -13 -29 -16 -40 -2 -10 -6 -29 -9 -41 -2 -12
-21 -81 -41 -152 -20 -72 -38 -137 -40 -146 -2 -8 -37 -139 -79 -290 -41 -151
-77 -284 -80 -295 -2 -11 -14 -54 -25 -95 -11 -41 -23 -84 -25 -95 -9 -38 -14
-60 -25 -97 -9 -33 -28 -108 -30 -115 0 -2 0 -4 -1 -5 0 -2 -2 -10 -4 -18 -1
-8 -10 -46 -20 -83 -9 -37 -18 -73 -19 -80 -2 -7 -6 -19 -10 -28 -4 -9 -6 -20
-5 -25 1 -5 -1 -16 -4 -24 -6 -15 -28 -94 -33 -117 -6 -33 -54 -185 -101 -323
-29 -85 -55 -162 -57 -170 -7 -22 -83 -207 -108 -260 -143 -310 -201 -385
-354 -461 -171 -85 -413 -41 -554 101 -102 102 -124 167 -122 355 1 183 11
217 108 404 54 103 65 133 66 175 1 86 -28 131 -110 167 -98 43 -205 13 -299
-84 -78 -79 -186 -224 -218 -291 -24 -51 -59 -171 -69 -236 -3 -19 -8 -46 -12
-60 -10 -45 -14 -264 -4 -305 5 -22 11 -51 14 -65 12 -66 65 -174 127 -260 85
-118 200 -212 319 -258 94 -37 437 -114 477 -108 15 2 53 8 83 11 30 4 62 9
70 10 8 2 38 6 65 9 249 34 285 47 465 173 56 40 195 176 228 224 9 13 19 26
22 29 10 7 82 118 114 174 72 124 144 286 217 486 28 74 53 142 56 150 3 8 7
20 9 27 1 7 10 36 19 65 9 29 18 58 20 63 4 17 5 18 21 70 26 84 55 179 59
195 2 8 13 51 25 95 19 71 95 355 106 395 2 8 8 33 14 55 6 22 12 47 15 55 2
8 15 58 30 110 14 52 28 102 30 110 1 9 22 87 45 175 23 88 44 168 46 177 2
10 6 26 8 36 2 9 10 37 17 62 7 25 14 53 16 63 1 9 19 79 39 155 38 149 46
179 48 202 1 9 5 20 8 25 5 9 20 68 19 80 0 2 5 19 10 37 6 18 12 41 14 50 11
51 55 207 64 228 32 77 94 94 231 62 25 -6 59 -13 75 -16 17 -3 41 -8 55 -11
14 -3 88 -16 165 -30 77 -14 151 -27 165 -31 14 -3 54 -7 90 -9 36 -2 67 -4
70 -5 3 -2 8 -2 12 -1 4 0 47 3 95 5 91 5 216 36 313 77 64 27 199 98 217 113
7 6 34 26 60 44 26 19 59 49 73 68 14 19 33 44 43 56 45 54 126 249 142 338 3
19 9 51 14 70 22 106 -14 214 -84 249 -49 25 -104 32 -154 21z"/>
<path d="M4858 7565 c-1 -2 -21 -6 -42 -9 -49 -8 -144 -58 -186 -99 -65 -63
-102 -157 -101 -259 0 -89 35 -167 100 -226 31 -27 116 -70 157 -79 99 -21
204 17 295 108 83 83 102 126 103 229 2 96 -6 118 -68 199 -47 62 -125 116
-182 127 -21 3 -46 8 -56 10 -9 1 -18 1 -20 -1z"/>
<path d="M9184 7420 c-153 -31 -264 -183 -259 -355 2 -87 6 -101 51 -195 50
-105 53 -111 60 -145 9 -41 9 -190 -1 -245 -4 -25 -32 -121 -62 -215 -52 -162
-68 -206 -128 -372 -15 -40 -27 -76 -27 -80 -1 -7 -34 -90 -68 -168 -4 -11
-27 -65 -50 -120 -61 -143 -144 -312 -219 -445 -111 -197 -342 -542 -406 -605
-79 -78 -191 -173 -240 -204 -50 -31 -64 -34 -148 -39 -93 -5 -94 -4 -128 26
-32 28 -34 34 -33 89 2 56 9 121 19 173 3 14 8 45 10 70 3 25 7 54 10 66 3 12
7 39 10 60 3 21 10 59 14 84 5 25 9 52 9 60 0 22 38 195 78 360 20 80 37 153
39 163 2 9 6 21 9 25 3 5 7 19 10 33 10 49 15 67 55 209 23 80 44 158 47 173
2 16 5 32 6 35 5 19 -16 72 -35 90 -22 21 -146 80 -174 84 -1 0 -22 6 -45 13
-78 23 -149 4 -199 -52 -28 -32 -50 -86 -129 -318 -97 -284 -119 -340 -227
-556 -87 -176 -192 -357 -230 -397 -7 -7 -13 -17 -13 -22 0 -5 -6 -15 -13 -22
-7 -7 -37 -44 -67 -83 -70 -90 -179 -204 -255 -266 -33 -27 -66 -55 -74 -61
-57 -47 -200 -90 -271 -82 -117 13 -211 108 -238 239 -10 49 -9 281 1 340 3
17 8 50 11 75 3 25 8 56 11 70 18 82 25 111 39 160 9 30 18 62 20 70 25 91
165 386 203 427 6 7 15 22 18 33 3 11 10 20 14 20 4 0 13 11 19 25 7 14 16 31
22 38 6 7 42 53 81 102 87 112 225 246 322 313 136 94 332 178 457 197 25 4
48 9 53 12 16 10 204 5 277 -7 144 -24 335 -98 485 -190 113 -68 187 -82 235
-45 34 28 109 107 108 114 -1 3 4 19 11 36 13 31 10 83 -7 125 -15 39 -105
116 -200 172 -86 51 -247 120 -312 133 -8 2 -15 4 -15 5 0 1 -9 3 -20 5 -11 1
-40 8 -65 14 -65 17 -85 19 -290 26 -275 10 -411 6 -467 -16 -12 -5 -23 -7
-23 -4 0 2 -18 -2 -40 -10 -22 -8 -42 -14 -45 -15 -3 0 -6 0 -7 -1 -2 0 -10
-2 -18 -4 -35 -7 -180 -70 -250 -107 -114 -62 -297 -184 -377 -252 -201 -170
-362 -356 -496 -573 -31 -51 -57 -95 -57 -98 0 -3 -11 -23 -25 -45 -14 -21
-26 -45 -27 -52 -2 -7 -5 -15 -8 -18 -7 -6 -70 -138 -70 -146 0 -2 -8 -23 -19
-47 -10 -23 -33 -78 -51 -122 -90 -225 -332 -594 -484 -738 -33 -33 -95 -91
-136 -130 -136 -130 -179 -156 -249 -152 -46 3 -82 24 -115 69 -18 24 -21 41
-20 124 1 101 5 134 24 192 5 19 13 48 16 64 2 16 9 37 15 47 5 11 7 19 5 19
-3 0 -1 12 5 28 6 15 12 34 14 42 4 21 28 107 60 215 14 50 28 99 30 110 3 11
16 56 29 100 21 68 42 140 52 180 12 49 108 394 124 445 30 99 63 214 66 225
1 6 23 82 49 170 26 88 48 165 49 170 2 6 6 23 11 38 12 44 10 118 -4 160 -15
45 -41 60 -136 80 -108 22 -207 22 -258 -1 -44 -20 -97 -73 -97 -98 0 -8 -4
-14 -8 -14 -4 0 -8 -9 -9 -19 -1 -11 -9 -41 -19 -68 -9 -26 -20 -61 -24 -78
-5 -16 -22 -77 -40 -135 -17 -58 -33 -112 -35 -120 -14 -64 -90 -339 -114
-418 -5 -18 -10 -36 -11 -40 0 -4 -10 -38 -21 -76 -11 -38 -22 -76 -24 -85 -4
-15 -96 -329 -136 -461 -23 -75 -28 -96 -35 -129 -3 -13 -10 -34 -16 -45 -6
-12 -11 -22 -9 -24 1 -1 -6 -28 -15 -60 -10 -31 -18 -66 -20 -77 -2 -17 -28
-138 -40 -187 -9 -39 -13 -57 -18 -90 -3 -20 -10 -46 -15 -59 -5 -13 -9 -28
-9 -34 -1 -5 -4 -31 -7 -56 -5 -36 -1 -66 19 -125 59 -184 78 -224 133 -275
60 -55 84 -68 143 -74 30 -3 69 -8 86 -10 48 -7 156 -17 194 -19 73 -5 308
102 378 171 7 7 18 13 23 13 16 0 252 241 318 325 34 44 74 93 87 109 14 16
39 49 56 73 32 43 48 54 49 31 4 -104 52 -279 104 -383 80 -159 181 -244 355
-299 144 -46 236 -51 375 -22 47 10 163 50 200 69 22 11 41 19 43 18 7 -5 133
77 197 128 102 81 185 167 265 276 25 33 47 62 50 65 3 3 26 37 50 75 25 39
53 79 62 89 10 11 18 26 18 35 0 36 14 -4 16 -47 16 -303 22 -340 77 -450 120
-242 400 -294 722 -132 171 85 308 204 466 402 84 106 267 375 315 466 15 28
31 52 35 52 4 0 10 14 14 30 4 17 10 30 14 30 4 0 57 100 118 223 106 212 123
247 173 362 12 28 28 64 35 80 8 17 28 64 45 105 17 41 35 84 41 95 5 11 13
34 18 50 30 102 116 380 133 430 11 33 21 65 22 70 12 57 48 105 79 105 23 0
122 -100 197 -200 14 -18 31 -39 38 -46 6 -7 12 -17 12 -23 0 -6 4 -11 8 -11
4 0 23 -25 41 -55 76 -125 44 -218 -189 -544 -45 -63 -92 -133 -104 -155 -13
-23 -33 -59 -46 -81 -12 -22 -46 -81 -76 -132 -30 -51 -54 -95 -54 -98 0 -4
-9 -19 -19 -33 -10 -15 -19 -29 -19 -32 0 -3 -7 -23 -17 -45 -86 -202 -107
-373 -70 -585 2 -14 7 -41 9 -60 15 -98 21 -112 93 -224 99 -154 216 -224 467
-281 27 -6 115 -25 141 -30 79 -17 109 -12 253 37 81 27 153 50 160 50 6 1 12
5 12 10 0 5 4 7 8 4 10 -6 147 69 198 109 83 64 217 210 329 359 65 86 120
156 124 156 4 0 7 -8 7 -17 1 -29 14 -127 19 -143 2 -8 6 -26 9 -40 35 -182
170 -375 311 -445 33 -17 62 -32 65 -35 3 -3 12 -7 20 -9 8 -2 37 -10 63 -17
130 -36 242 -38 356 -8 250 65 477 209 609 385 35 46 69 87 75 91 7 4 8 8 2 8
-6 0 -6 3 1 8 5 4 23 25 39 47 17 22 32 42 35 45 3 3 36 47 74 98 38 50 70 92
72 92 2 0 3 -90 4 -200 0 -222 2 -233 75 -345 107 -165 246 -223 459 -191 73
10 151 37 256 88 78 38 117 64 153 102 27 28 106 111 175 185 70 73 160 168
200 210 68 70 108 128 173 251 13 25 30 53 38 63 8 9 11 17 7 17 -4 0 1 12 12
28 10 15 40 68 67 117 27 50 57 105 68 124 42 76 98 190 111 228 12 33 12 44
0 71 -16 40 -98 93 -134 89 -29 -4 -87 -83 -154 -211 -110 -209 -302 -526
-337 -556 -3 -3 -19 -23 -35 -45 -50 -69 -66 -87 -171 -192 -56 -55 -111 -104
-122 -108 -12 -3 -21 -11 -21 -16 0 -5 -3 -8 -7 -7 -5 1 -26 -6 -48 -16 -47
-22 -179 -25 -216 -6 -48 25 -63 51 -63 104 0 52 9 122 23 186 4 20 7 43 5 53
-1 9 1 17 5 17 4 0 7 8 7 18 0 9 4 35 7 57 4 22 9 56 13 75 7 43 10 61 24 130
6 30 13 66 15 80 34 188 68 329 156 652 33 120 60 233 61 252 3 71 -62 123
-216 175 -117 40 -223 -2 -273 -109 -10 -23 -44 -120 -49 -145 -1 -5 -12 -37
-24 -70 -11 -33 -23 -71 -26 -84 -3 -14 -8 -29 -12 -35 -4 -6 -7 -13 -8 -16
-1 -6 0 -3 -47 -130 -43 -114 -42 -113 -139 -309 -71 -144 -123 -242 -140
-266 -4 -5 -36 -53 -70 -105 -35 -52 -65 -97 -68 -100 -3 -3 -19 -23 -35 -45
-56 -77 -121 -150 -201 -230 -90 -89 -120 -115 -134 -115 -6 0 -10 -4 -10 -9
0 -8 -112 -62 -160 -77 -43 -13 -113 -11 -167 4 -29 8 -53 19 -53 23 0 5 -5 9
-11 9 -21 0 -70 60 -96 116 -26 57 -33 85 -38 149 -2 22 -4 42 -5 45 -1 3 -2
9 -1 14 1 5 4 58 6 118 2 60 6 112 8 116 3 4 8 27 11 52 7 55 13 86 21 110 3
10 8 29 10 42 17 86 110 330 177 463 34 66 159 267 178 285 3 3 23 28 45 55
116 147 301 304 458 389 84 46 244 104 307 111 19 3 46 7 60 10 49 11 240 5
305 -8 17 -4 44 -9 61 -12 97 -16 277 -93 395 -171 41 -27 76 -49 79 -50 3 0
12 -4 21 -8 18 -8 75 -10 101 -4 20 5 108 60 108 68 0 3 9 15 19 27 27 28 50
101 45 141 -5 41 -42 101 -79 127 -15 11 -33 25 -39 32 -14 13 -128 87 -136
88 -3 1 -21 9 -40 20 -19 11 -37 20 -40 20 -3 0 -27 11 -54 23 -48 22 -198 65
-266 76 -19 3 -46 8 -60 11 -83 17 -274 21 -465 10 -66 -4 -145 -8 -176 -10
-116 -6 -410 -131 -599 -254 -183 -120 -378 -299 -500 -460 -14 -18 -31 -39
-37 -46 -7 -8 -13 -16 -13 -20 0 -6 -40 -65 -50 -75 -8 -7 -108 -179 -172
-295 -194 -352 -280 -508 -290 -529 -5 -12 -22 -43 -38 -71 -16 -27 -37 -67
-47 -87 -10 -21 -21 -38 -25 -38 -5 0 -8 -6 -8 -13 0 -7 -8 -22 -17 -33 -10
-10 -25 -32 -33 -49 -8 -16 -18 -34 -22 -40 -4 -5 -34 -46 -66 -90 -132 -181
-289 -306 -464 -370 -94 -35 -119 -39 -198 -38 -103 1 -136 15 -198 80 -75 80
-106 188 -98 342 3 58 8 120 11 136 9 48 44 160 65 210 11 25 19 46 18 48 -4
6 168 300 194 332 5 6 37 50 71 99 34 49 75 107 91 130 16 23 43 61 60 86 17
25 34 47 37 50 11 9 51 92 56 119 16 76 5 158 -32 245 -17 41 -88 157 -116
191 -52 62 -107 125 -140 160 -21 22 -47 51 -59 65 -28 33 -174 182 -241 246
-135 129 -134 125 -135 344 0 152 -4 192 -18 225 -43 100 -153 157 -262 135z"/>
</g>
</svg>
